<!DOCTYPE svg PUBLIC "-//W3C//DTD SVG 1.1//EN" "http://www.w3.org/Graphics/SVG/1.1/DTD/svg11.dtd">
<!-- Uploaded to: SVG Repo, www.svgrepo.com, Transformed by: SVG Repo Mixer Tools -->
<svg height="800px" width="800px" version="1.1" id="Layer_1" xmlns="http://www.w3.org/2000/svg" xmlns:xlink="http://www.w3.org/1999/xlink" viewBox="0 0 511.992 511.992" xml:space="preserve" fill="#000000">
<g id="SVGRepo_bgCarrier" stroke-width="0"/>
<g id="SVGRepo_tracerCarrier" stroke-linecap="round" stroke-linejoin="round"/>
<g id="SVGRepo_iconCarrier"> <g> <path style="fill:#E6E9ED;" d="M357.402,151.058l-39.015-39.006c-7.172-7.18-18.828-7.18-25.999,0L259.42,145.02l-32.96-32.968 c-7.188-7.18-18.828-7.18-26.007,0l-32.967,32.968l-32.968-32.968c-7.18-7.18-18.82-7.18-26,0l-39.006,39.006 c-7.18,7.179-7.18,18.82,0,26.007l39.006,38.999c7.18,7.187,18.82,7.187,26,0l32.968-32.968l32.967,32.968 c7.18,7.187,18.82,7.187,26.007,0l32.96-32.968l32.968,32.968c7.171,7.187,18.827,7.187,25.999,0l39.015-38.999 C364.573,169.878,364.573,158.237,357.402,151.058z"/> <path style="fill:#E6E9ED;" d="M164.408,18.141c-2.328-7.938-6.805-13.547-7.391-14.25l-0.008-0.008 c0-0.008-0.008-0.016-0.016-0.016l0,0C155.04,1.508,152.087,0,148.783,0c-5.891,0-10.664,4.781-10.664,10.672 c0,2.57,0.906,4.938,2.43,6.781l-0.039-0.047c0.023,0.031,2.492,3.156,3.547,7.179c1.086,4.148,0.242,7.226-2.828,10.312 c-8.648,8.68-11.515,20.039-8.085,31.999c2.32,8.102,6.828,13.836,7.335,14.469v-0.008c1.961,2.422,4.945,3.976,8.305,3.976 c5.89,0,10.664-4.773,10.664-10.664c0-2.539-0.883-4.859-2.367-6.695h0.008c-0.023-0.031-2.328-3.086-3.438-6.961 c-1.305-4.546-0.5-7.859,2.688-11.062C165.002,41.257,167.869,29.96,164.408,18.141z M140.557,17.461c0,0,0.008,0.008,0.016,0.016 l0,0L140.557,17.461z"/> <path style="fill:#E6E9ED;" d="M228.656,18.141c-2.32-7.938-6.805-13.547-7.391-14.25V3.883c-0.008-0.008-0.016-0.016-0.016-0.016 l0,0C219.288,1.508,216.335,0,213.031,0c-5.891,0-10.664,4.781-10.664,10.672c0,2.57,0.914,4.938,2.43,6.781l-0.031-0.047 c0.023,0.031,2.492,3.156,3.547,7.179c1.086,4.148,0.234,7.226-2.836,10.312c-8.64,8.68-11.515,20.039-8.078,31.999 c2.32,8.102,6.828,13.836,7.328,14.469l0.008-0.008c1.953,2.422,4.945,3.976,8.297,3.976c5.89,0,10.671-4.773,10.671-10.664 c0-2.539-0.891-4.859-2.367-6.695l0,0c-0.023-0.031-2.328-3.086-3.438-6.961c-1.305-4.546-0.5-7.859,2.695-11.062 C229.25,41.257,232.117,29.96,228.656,18.141z M204.805,17.461c0.008,0,0.016,0.008,0.016,0.016l0,0L204.805,17.461z"/> <path style="fill:#E6E9ED;" d="M285.592,67.975c-0.031-0.031-2.328-3.086-3.438-6.961c-1.312-4.546-0.5-7.859,2.688-11.062 c8.656-8.695,11.53-19.992,8.062-31.812c-2.328-7.938-6.812-13.547-7.391-14.25V3.883c0-0.008-0.016-0.016-0.016-0.016l0,0 C283.544,1.508,280.591,0,277.279,0c-5.883,0-10.656,4.781-10.656,10.672c0,2.57,0.906,4.938,2.43,6.781l-0.039-0.047 c0.023,0.031,2.492,3.156,3.547,7.179c1.078,4.148,0.234,7.226-2.828,10.312c-8.648,8.68-11.516,20.039-8.086,31.999 c2.32,8.102,6.828,13.836,7.336,14.469v-0.008c1.961,2.422,4.938,3.976,8.297,3.976c5.89,0,10.671-4.773,10.671-10.664 c0-2.539-0.891-4.859-2.375-6.695L285.592,67.975L285.592,67.975z M269.061,17.461c0,0,0.008,0.008,0.016,0.016l0,0L269.061,17.461 z"/> </g> <path style="fill:#E9573F;" d="M448.102,192.002h-85.139c-11.78,0-21.342,9.547-21.342,21.328v39.858 c1.391-10.452,10.327-18.522,21.154-18.522h42.656c11.78,0,21.342,9.546,21.342,21.335v85.31c0,11.781-9.562,21.344-21.342,21.344 h-42.656c-10.827,0-19.764-8.062-21.154-18.531v39.872c0,11.781,9.562,21.312,21.342,21.312h85.139 c11.781,0,21.328-9.531,21.328-21.312V213.329C469.431,201.549,459.884,192.002,448.102,192.002z"/> <path style="fill:#FC6E51;" d="M366.151,149.331H59.911c0,0-60.225,181.323,43.749,362.661h218.743 C426.368,330.654,366.151,149.331,366.151,149.331z"/> <g> <path style="fill:#E9573F;" d="M77.497,173.792c-4.164,4.164-4.164,10.914,0,15.085c4.164,4.164,10.921,4.164,15.085,0 c4.164-4.171,4.164-10.921,0-15.085S81.661,169.628,77.497,173.792z"/> <path style="fill:#E9573F;" d="M98.832,195.119c-4.164,4.172-4.164,10.922,0,15.086s10.914,4.164,15.085,0 c4.164-4.164,4.164-10.914,0-15.086C109.746,190.955,102.996,190.955,98.832,195.119z"/> <path style="fill:#E9573F;" d="M120.159,173.792c-4.164,4.164-4.164,10.914,0,15.085c4.164,4.164,10.922,4.164,15.086,0 c4.164-4.171,4.164-10.921,0-15.085S124.323,169.628,120.159,173.792z"/> <path style="fill:#E9573F;" d="M312.153,195.119c-4.172,4.172-4.172,10.922,0,15.086c4.156,4.164,10.922,4.164,15.078,0 c4.172-4.164,4.172-10.914,0-15.086C323.075,190.955,316.309,190.955,312.153,195.119z"/> <path style="fill:#E9573F;" d="M348.574,173.792c-4.172-4.164-10.921-4.164-15.093,0c-4.156,4.164-4.156,10.914,0,15.085 c4.172,4.164,10.921,4.164,15.093,0C352.73,184.705,352.73,177.956,348.574,173.792z"/> <path style="fill:#E9573F;" d="M141.495,195.119c-4.164,4.172-4.164,10.922,0,15.086s10.921,4.164,15.085,0s4.164-10.914,0-15.086 C152.416,190.955,145.659,190.955,141.495,195.119z"/> <path style="fill:#E9573F;" d="M162.83,173.792c-4.164,4.164-4.164,10.914,0,15.085c4.164,4.164,10.914,4.164,15.085,0 c4.164-4.171,4.164-10.921,0-15.085C173.744,169.628,166.994,169.628,162.83,173.792z"/> <path style="fill:#E9573F;" d="M184.157,195.119c-4.164,4.172-4.164,10.922,0,15.086s10.922,4.164,15.086,0s4.164-10.914,0-15.086 C195.079,190.955,188.321,190.955,184.157,195.119z"/> <path style="fill:#E9573F;" d="M205.493,173.792c-4.164,4.164-4.164,10.914,0,15.085c4.164,4.164,10.921,4.164,15.085,0 c4.164-4.171,4.164-10.921,0-15.085S209.657,169.628,205.493,173.792z"/> <path style="fill:#E9573F;" d="M226.828,195.119c-4.172,4.172-4.172,10.922,0,15.086c4.164,4.164,10.913,4.164,15.077,0 c4.172-4.164,4.172-10.914,0-15.086C237.741,190.955,230.992,190.955,226.828,195.119z"/> <path style="fill:#E9573F;" d="M248.155,173.792c-4.164,4.164-4.164,10.914,0,15.085c4.164,4.164,10.922,4.164,15.086,0 c4.164-4.171,4.164-10.921,0-15.085S252.319,169.628,248.155,173.792z"/> <path style="fill:#E9573F;" d="M269.491,195.119c-4.164,4.172-4.164,10.922,0,15.086s10.913,4.164,15.085,0 c4.156-4.164,4.156-10.914,0-15.086C280.404,190.955,273.655,190.955,269.491,195.119z"/> <path style="fill:#E9573F;" d="M305.903,173.792c-4.172-4.164-10.921-4.164-15.077,0c-4.172,4.164-4.172,10.914,0,15.085 c4.156,4.164,10.905,4.164,15.077,0C310.075,184.705,310.075,177.956,305.903,173.792z"/> <path style="fill:#E9573F;" d="M120.573,504.43c-2.078,2.094-3.125,4.812-3.125,7.562h21.335c0-2.75-1.039-5.469-3.125-7.562 C131.495,500.274,124.737,500.274,120.573,504.43z"/> <path style="fill:#E9573F;" d="M163.236,504.43c-2.078,2.094-3.117,4.812-3.117,7.562h21.328c0-2.75-1.039-5.469-3.125-7.562 C174.158,500.274,167.408,500.274,163.236,504.43z"/> <path style="fill:#E9573F;" d="M205.907,504.43c-2.086,2.094-3.125,4.812-3.125,7.562h21.328c0-2.75-1.039-5.469-3.117-7.562 C216.82,500.274,210.071,500.274,205.907,504.43z"/> <path style="fill:#E9573F;" d="M248.569,504.43c-2.086,2.094-3.125,4.812-3.125,7.562h21.336c0-2.75-1.039-5.469-3.125-7.562 C259.491,500.274,252.733,500.274,248.569,504.43z"/> <path style="fill:#E9573F;" d="M306.309,504.43c-4.156-4.155-10.905-4.155-15.077,0c-2.078,2.094-3.125,4.812-3.125,7.562h21.327 C309.435,509.242,308.403,506.523,306.309,504.43z"/> </g> </g>
</svg>